# xmcd CD database file
#
# Track frame offsets:
#	150
#	16195
#	38411
#	68150
#	93554
#	123624
#	149811
#	171754
#	193241
#	224097
#	240296
#	257738
#	289470
#
# Disc length: 4231 seconds
#
# Revision: 0
# Processed by: cddbd v1.5.2PL0 Copyright (c) Steve Scherf et al.
# Submitted via: CDex 1.51
#
DISCID=ca10850d
DTITLE=Various Artist - Jazz Magazine Nr. 47
DYEAR=2006
DGENRE=Jazz
TTITLE0=WENDY LEE TAYLOR - SMILE
TTITLE1=THIERRY MAILLARD TRIO - REMONTER LE TEMPS
TTITLE2=RAFFAELE CASARANO and LOCOMOTIVE - LEGEND
TTITLE3=LOUISA BEY - THE RED VERTIGO
TTITLE4=QUINTETTO LO GRECO - YES AND NO
TTITLE5=JOHN HOLLENBECK LARGE ENSEMBLE - RAM
TTITLE6=DANILA SATRAGNO - IL MIO REGNO
TTITLE7=KIRK WHALUM - FOR THE COOL IN YOU
TTITLE8=KNEEBODY - COAT RACK
TTITLE9=JAZZSET ORCHESTRA - ALL OF ME
TTITLE10=LIGIA FRANCA - PINTADO 07
TTITLE11=MIKE STERN -  LANGUAGE
TTITLE12=TERRY GIBBS - ST. LOUIS BLUES
EXTD=YEAR: 2006
EXTT0=
EXTT1=
EXTT2=
EXTT3=
EXTT4=
EXTT5=
EXTT6=
EXTT7=
EXTT8=
EXTT9=
EXTT10=
EXTT11=
EXTT12=
PLAYORDER=
